<?xml version="1.0" encoding="UTF-8" standalone="no"?>
<!-- Generator: Adobe Illustrator 21.0.0, SVG Export Plug-In . SVG Version: 6.00 Build 0)  -->

<svg
   xmlns:dc="http://purl.org/dc/elements/1.1/"
   xmlns:cc="http://creativecommons.org/ns#"
   xmlns:rdf="http://www.w3.org/1999/02/22-rdf-syntax-ns#"
   xmlns:svg="http://www.w3.org/2000/svg"
   xmlns="http://www.w3.org/2000/svg"
   xmlns:sodipodi="http://sodipodi.sourceforge.net/DTD/sodipodi-0.dtd"
   xmlns:inkscape="http://www.inkscape.org/namespaces/inkscape"
   version="1.1"
   id="Слой_1"
   x="0px"
   y="0px"
   viewBox="0 0 300 300"
   enable-background="new 0 0 400 400"
   xml:space="preserve"
   inkscape:version="0.92.3 (2405546, 2018-03-11)"
   sodipodi:docname="icon_youtube-fresh-04.svg"
   width="300"
   height="300"><metadata
     id="metadata17"><rdf:RDF><cc:Work
         rdf:about=""><dc:format>image/svg+xml</dc:format><dc:type
           rdf:resource="http://purl.org/dc/dcmitype/StillImage" /><dc:title></dc:title></cc:Work></rdf:RDF></metadata><defs
     id="defs15"><pattern
       y="0"
       x="0"
       height="6"
       width="6"
       patternUnits="userSpaceOnUse"
       id="EMFhbasepattern" /></defs><sodipodi:namedview
     pagecolor="#ffffff"
     bordercolor="#666666"
     borderopacity="1"
     objecttolerance="10"
     gridtolerance="10"
     guidetolerance="10"
     inkscape:pageopacity="0"
     inkscape:pageshadow="2"
     inkscape:window-width="1024"
     inkscape:window-height="600"
     id="namedview13"
     showgrid="false"
     inkscape:zoom="1.18"
     inkscape:cx="167.25429"
     inkscape:cy="159.50646"
     inkscape:window-x="0"
     inkscape:window-y="0"
     inkscape:window-maximized="0"
     inkscape:current-layer="Слой_1"
     fit-margin-top="0"
     fit-margin-left="0"
     fit-margin-right="0"
     fit-margin-bottom="0"
     showguides="false"
     inkscape:guide-bbox="true"
     inkscape:object-paths="true"
     inkscape:snap-bbox="true"
     inkscape:bbox-paths="true"
     inkscape:bbox-nodes="true"
     inkscape:snap-bbox-edge-midpoints="true"
     inkscape:snap-page="true"><sodipodi:guide
       position="150.00019,220.77733"
       orientation="0,1"
       id="guide1371"
       inkscape:locked="false" /><sodipodi:guide
       position="150.00019,79.22264"
       orientation="0,1"
       id="guide1373"
       inkscape:locked="false" /><sodipodi:guide
       position="48.863285,158.47458"
       orientation="1,0"
       id="guide1375"
       inkscape:locked="false" /><sodipodi:guide
       position="0,300"
       orientation="0.70710678,0.70710678"
       id="guide13"
       inkscape:locked="false" /><sodipodi:guide
       position="300,300"
       orientation="-0.70710678,0.70710678"
       id="guide15"
       inkscape:locked="false" /><sodipodi:guide
       position="150,150"
       orientation="0,1"
       id="guide17"
       inkscape:locked="false" /></sodipodi:namedview><g
     id="g5360"><g
       id="g4167"><path
         style="fill:#ff0000;fill-opacity:1;fill-rule:nonzero;stroke:none"
         d="m 149.9073,45.027231 c 0,0 -93.762454,8.8e-5 -117.295581,6.11506 C 20.01127,54.662973 9.6357787,65.038579 6.1150604,77.824346 1.4041524e-4,101.35749 1.0000001e-6,150.0927 1.0000001e-6,150.0927 c 0,0 1.394152399e-4,48.92021 6.1150593999999,72.08296 3.5207183,12.78559 13.7109046,22.97589 26.4966586,26.49666 23.718433,6.30021 117.295581,6.30044 117.295581,6.30044 0,0 93.94834,-7e-5 117.48098,-6.11504 12.78585,-3.5207 22.97583,-13.52574 26.31126,-26.49667 C 299.99982,199.01297 300,150.27809 300,150.27809 c 0,0 0.18516,-48.9206 -6.30046,-72.453744 C 290.36411,65.038579 280.17413,54.848516 267.38828,51.513076 243.85564,45.027528 149.9073,45.027231 149.9073,45.027231 Z m -29.83372,60.038229 78.01263,45.02724 -78.01263,44.84184 z"
         id="path4156"
         inkscape:connector-curvature="0"
         sodipodi:nodetypes="ccccccccccccccccc" /></g></g></svg>


<svg
   xmlns:dc="http://purl.org/dc/elements/1.1/"
   xmlns:cc="http://creativecommons.org/ns#"
   xmlns:svg="http://www.w3.org/2000/svg"
   xmlns="http://www.w3.org/2000/svg"
   version="1.1"
   viewBox="0 0 300 300"
   width="300"
   height="300">
   <path d="m 149.9073,45.027231 c 0,0 -93.762454,8.8e-5 -117.295581,6.11506 C 20.01127,54.662973 9.6357787,65.038579 6.1150604,77.824346 1.4041524e-4,101.35749 1.0000001e-6,150.0927 1.0000001e-6,150.0927 c 0,0 1.394152399e-4,48.92021 6.1150593999999,72.08296 3.5207183,12.78559 13.7109046,22.97589 26.4966586,26.49666 23.718433,6.30021 117.295581,6.30044 117.295581,6.30044 0,0 93.94834,-7e-5 117.48098,-6.11504 12.78585,-3.5207 22.97583,-13.52574 26.31126,-26.49667 C 299.99982,199.01297 300,150.27809 300,150.27809 c 0,0 0.18516,-48.9206 -6.30046,-72.453744 C 290.36411,65.038579 280.17413,54.848516 267.38828,51.513076 243.85564,45.027528 149.9073,45.027231 149.9073,45.027231 Z m -29.83372,60.038229 78.01263,45.02724 -78.01263,44.84184 z"/>
</svg>
