<?xml version="1.0" encoding="UTF-8" standalone="no"?>
<!-- Generator: Adobe Illustrator 16.0.0, SVG Export Plug-In . SVG Version: 6.00 Build 0)  -->

<svg
   xmlns:dc="http://purl.org/dc/elements/1.1/"
   xmlns:cc="http://creativecommons.org/ns#"
   xmlns:rdf="http://www.w3.org/1999/02/22-rdf-syntax-ns#"
   xmlns:svg="http://www.w3.org/2000/svg"
   xmlns="http://www.w3.org/2000/svg"
   xmlns:sodipodi="http://sodipodi.sourceforge.net/DTD/sodipodi-0.dtd"
   xmlns:inkscape="http://www.inkscape.org/namespaces/inkscape"
   version="1.1"
   id="Layer_1"
   x="0px"
   y="0px"
   width="300"
   height="300"
   viewBox="0 0 300 300.00001"
   enable-background="new 0 0 266.893 266.895"
   xml:space="preserve"
   sodipodi:docname="icon_facebook-01-04.svg"
   inkscape:version="0.92.3 (2405546, 2018-03-11)"><metadata
   id="metadata1137"><rdf:RDF><cc:Work
       rdf:about=""><dc:format>image/svg+xml</dc:format><dc:type
         rdf:resource="http://purl.org/dc/dcmitype/StillImage" /><dc:title></dc:title></cc:Work></rdf:RDF></metadata><defs
   id="defs1135" /><sodipodi:namedview
   pagecolor="#ffffff"
   bordercolor="#666666"
   borderopacity="1"
   objecttolerance="10"
   gridtolerance="10"
   guidetolerance="10"
   inkscape:pageopacity="0"
   inkscape:pageshadow="2"
   inkscape:window-width="899"
   inkscape:window-height="539"
   id="namedview1133"
   showgrid="false"
   inkscape:zoom="1.2505083"
   inkscape:cx="175.36271"
   inkscape:cy="145.50505"
   inkscape:window-x="44"
   inkscape:window-y="16"
   inkscape:window-maximized="0"
   inkscape:current-layer="Layer_1"
   fit-margin-top="0"
   fit-margin-left="0"
   fit-margin-right="0"
   fit-margin-bottom="0"
   inkscape:object-paths="true"
   inkscape:snap-intersection-paths="true"
   inkscape:snap-page="true" />
<path
   style="fill:#e6e6e6"
   d="M 160.23903,300 V 183.82279 h -39.09406 v -45.27591 h 39.09406 v -33.39193 c 0,-38.748355 23.66597,-59.847219 58.23298,-59.847219 16.55771,0 30.78928,1.232985 34.9357,1.784753 v 40.494577 l -23.97482,0.01137 c -18.79738,0 -22.43787,8.93369 -22.43787,22.042269 v 28.90618 h 44.83483 l -5.83854,45.27591 H 206.99502 V 300 Z"
   id="Blue_1_"
   inkscape:connector-curvature="0"
   sodipodi:nodetypes="cccccsscccscccccc" />

</svg>

<svg
   xmlns:dc="http://purl.org/dc/elements/1.1/"
   xmlns:cc="http://creativecommons.org/ns#"
   xmlns:svg="http://www.w3.org/2000/svg"
   xmlns="http://www.w3.org/2000/svg"
   version="1.1"
   viewBox="0 0 300 300">
<path
   d="M 160.23903,300 V 183.82279 h -39.09406 v -45.27591 h 39.09406 v -33.39193 c 0,-38.748355 23.66597,-59.847219 58.23298,-59.847219 16.55771,0 30.78928,1.232985 34.9357,1.784753 v 40.494577 l -23.97482,0.01137 c -18.79738,0 -22.43787,8.93369 -22.43787,22.042269 v 28.90618 h 44.83483 l -5.83854,45.27591 H 206.99502 V 300 Z"/>

</svg>
