<?xml version="1.0" encoding="UTF-8" standalone="no"?>
<svg
   xmlns:dc="http://purl.org/dc/elements/1.1/"
   xmlns:cc="http://creativecommons.org/ns#"
   xmlns:rdf="http://www.w3.org/1999/02/22-rdf-syntax-ns#"
   xmlns:svg="http://www.w3.org/2000/svg"
   xmlns="http://www.w3.org/2000/svg"
   xmlns:sodipodi="http://sodipodi.sourceforge.net/DTD/sodipodi-0.dtd"
   xmlns:inkscape="http://www.inkscape.org/namespaces/inkscape"
   viewBox="0 0 300 300"
   version="1.1"
   id="svg1197"
   sodipodi:docname="icon_Instagram_simple_icon-01.svg"
   width="300"
   height="300"
   inkscape:version="0.92.3 (2405546, 2018-03-11)">
  <metadata
     id="metadata1203">
    <rdf:RDF>
      <cc:Work
         rdf:about="">
        <dc:format>image/svg+xml</dc:format>
        <dc:type
           rdf:resource="http://purl.org/dc/dcmitype/StillImage" />
        <dc:title></dc:title>
      </cc:Work>
    </rdf:RDF>
  </metadata>
  <defs
     id="defs1201" />
  <sodipodi:namedview
     pagecolor="#ffffff"
     bordercolor="#666666"
     borderopacity="1"
     objecttolerance="10"
     gridtolerance="10"
     guidetolerance="10"
     inkscape:pageopacity="0"
     inkscape:pageshadow="2"
     inkscape:window-width="1024"
     inkscape:window-height="571"
     id="namedview1199"
     showgrid="false"
     inkscape:snap-page="true"
     inkscape:snap-bbox="true"
     inkscape:snap-intersection-paths="true"
     inkscape:object-paths="true"
     inkscape:bbox-paths="true"
     inkscape:bbox-nodes="true"
     inkscape:snap-bbox-edge-midpoints="true"
     inkscape:snap-nodes="false"
     inkscape:snap-smooth-nodes="true"
     inkscape:snap-midpoints="false"
     inkscape:snap-bbox-midpoints="true"
     inkscape:zoom="0.921875"
     inkscape:cx="148.13301"
     inkscape:cy="202.9852"
     inkscape:window-x="0"
     inkscape:window-y="0"
     inkscape:window-maximized="1"
     inkscape:current-layer="svg1197" />
  <path
     id="path1436"
     d="M 149.99962,0 C 109.26341,5.9420345e-6 104.15362,0.17362595 88.15722,0.90360508 72.191001,1.6324051 61.286851,4.1671234 51.74582,7.8754303 A 73.527367,73.527842 0 0 0 25.178639,25.176481 73.527367,73.527842 0 0 0 7.8730491,51.744993 C 4.1677432,61.286678 1.6317424,72.190306 0.90592403,88.156627 0.17296054,104.15331 0,109.26279 0,150.00059 c 0,40.73778 0.17296054,45.84726 0.90592403,61.84394 0.72879537,15.96633 3.26465707,26.87055 6.97294047,36.41164 a 73.527962,73.528437 0 0 0 17.3009375,26.56735 73.526176,73.52665 0 0 0 26.567181,17.30105 c 9.541625,3.70832 20.445774,6.24419 36.411397,6.97299 15.99897,0.72998 21.10663,0.90244 61.84356,0.90244 40.73694,0 45.84697,-0.17246 61.84356,-0.90244 15.96622,-0.7288 26.87036,-3.26467 36.41139,-6.97299 a 76.700366,76.700861 0 0 0 43.86812,-43.8684 c 3.70828,-9.54168 6.24415,-20.44591 6.97294,-36.41164 0.73,-15.99906 0.90244,-21.10676 0.90244,-61.84394 0,-40.7372 -0.17244,-45.84728 -0.90244,-61.843963 -0.72879,-15.966321 -3.26466,-26.870545 -6.97294,-36.411634 A 73.526176,73.52665 0 0 0 274.82407,25.177642 73.526772,73.527246 0 0 0 248.25456,7.8731022 C 238.71294,4.1677725 227.80938,1.6317562 211.84316,0.90593309 195.84677,0.17297097 190.73698,5.9420345e-6 150.00078,0 Z m 0,27.027876 h 9.7e-4 c 40.05029,6e-6 44.79482,0.152888 60.61318,0.874531 14.62474,0.667471 22.56608,3.110398 27.85222,5.164615 a 46.473812,46.474111 0 0 1 17.24745,11.221202 46.473812,46.474111 0 0 1 11.21997,17.247555 c 2.0542,5.285588 4.49771,13.227573 5.16457,27.852401 0.72166,15.81747 0.87453,20.56168 0.87453,60.61473 0,40.05305 -0.15287,44.79491 -0.87453,60.61356 -0.66746,14.62483 -3.11098,22.56623 -5.16457,27.85241 a 49.674201,49.674521 0 0 1 -28.46742,28.46875 c -5.28555,2.05422 -13.22748,4.49774 -27.85222,5.16462 -15.81438,0.72166 -20.55857,0.87454 -60.61433,0.87454 -40.05577,0 -44.79818,-0.15288 -60.614343,-0.87454 -14.624734,-0.66747 -22.566069,-3.111 -27.852216,-5.16462 A 46.473216,46.473516 0 0 1 44.285443,255.71643 46.474408,46.474707 0 0 1 33.065475,238.46888 c -2.054202,-5.2856 -4.497708,-13.22758 -5.16458,-27.85241 -0.721651,-15.81686 -0.874525,-20.56051 -0.874525,-60.61356 0,-40.05305 0.152874,-44.79608 0.874525,-60.61473 0.667467,-14.624828 3.110378,-22.566216 5.16458,-27.852401 a 46.473812,46.474111 0 0 1 11.2213,-17.248717 46.474408,46.474707 0 0 1 17.247444,-11.22004 C 66.819772,31.012805 74.761702,28.569283 89.386436,27.902407 105.2036,27.180764 109.94815,27.027882 149.99962,27.027876 Z M 230.0698,51.931062 A 17.99958,17.999697 0 0 0 212.06994,69.929877 17.99958,17.999697 0 0 0 230.0698,87.929853 17.99958,17.999697 0 0 0 248.0685,69.929877 17.99958,17.999697 0 0 0 230.0698,51.931062 Z M 149.99962,72.97329 a 77.026658,77.027154 0 1 0 77.02678,77.0273 77.026658,77.027154 0 0 0 -77.02678,-77.0273 z m -2.07817,27.0709 a 49.9993,49.999623 0 0 1 52.07842,49.9564 A 49.999895,50.000218 0 0 1 149.99962,200 49.9993,49.999623 0 0 1 147.92145,100.04419 Z"
     style="fill:#cccccc;stroke-width:0.5954231"
     inkscape:connector-curvature="0" />
</svg>

<svg
   xmlns:dc="http://purl.org/dc/elements/1.1/"
   xmlns:cc="http://creativecommons.org/ns#"
   xmlns="http://www.w3.org/2000/svg"
   viewBox="0 0 300 300"
   version="1.1">
  <path d="M 149.99962,0 C 109.26341,5.9420345e-6 104.15362,0.17362595 88.15722,0.90360508 72.191001,1.6324051 61.286851,4.1671234 51.74582,7.8754303 A 73.527367,73.527842 0 0 0 25.178639,25.176481 73.527367,73.527842 0 0 0 7.8730491,51.744993 C 4.1677432,61.286678 1.6317424,72.190306 0.90592403,88.156627 0.17296054,104.15331 0,109.26279 0,150.00059 c 0,40.73778 0.17296054,45.84726 0.90592403,61.84394 0.72879537,15.96633 3.26465707,26.87055 6.97294047,36.41164 a 73.527962,73.528437 0 0 0 17.3009375,26.56735 73.526176,73.52665 0 0 0 26.567181,17.30105 c 9.541625,3.70832 20.445774,6.24419 36.411397,6.97299 15.99897,0.72998 21.10663,0.90244 61.84356,0.90244 40.73694,0 45.84697,-0.17246 61.84356,-0.90244 15.96622,-0.7288 26.87036,-3.26467 36.41139,-6.97299 a 76.700366,76.700861 0 0 0 43.86812,-43.8684 c 3.70828,-9.54168 6.24415,-20.44591 6.97294,-36.41164 0.73,-15.99906 0.90244,-21.10676 0.90244,-61.84394 0,-40.7372 -0.17244,-45.84728 -0.90244,-61.843963 -0.72879,-15.966321 -3.26466,-26.870545 -6.97294,-36.411634 A 73.526176,73.52665 0 0 0 274.82407,25.177642 73.526772,73.527246 0 0 0 248.25456,7.8731022 C 238.71294,4.1677725 227.80938,1.6317562 211.84316,0.90593309 195.84677,0.17297097 190.73698,5.9420345e-6 150.00078,0 Z m 0,27.027876 h 9.7e-4 c 40.05029,6e-6 44.79482,0.152888 60.61318,0.874531 14.62474,0.667471 22.56608,3.110398 27.85222,5.164615 a 46.473812,46.474111 0 0 1 17.24745,11.221202 46.473812,46.474111 0 0 1 11.21997,17.247555 c 2.0542,5.285588 4.49771,13.227573 5.16457,27.852401 0.72166,15.81747 0.87453,20.56168 0.87453,60.61473 0,40.05305 -0.15287,44.79491 -0.87453,60.61356 -0.66746,14.62483 -3.11098,22.56623 -5.16457,27.85241 a 49.674201,49.674521 0 0 1 -28.46742,28.46875 c -5.28555,2.05422 -13.22748,4.49774 -27.85222,5.16462 -15.81438,0.72166 -20.55857,0.87454 -60.61433,0.87454 -40.05577,0 -44.79818,-0.15288 -60.614343,-0.87454 -14.624734,-0.66747 -22.566069,-3.111 -27.852216,-5.16462 A 46.473216,46.473516 0 0 1 44.285443,255.71643 46.474408,46.474707 0 0 1 33.065475,238.46888 c -2.054202,-5.2856 -4.497708,-13.22758 -5.16458,-27.85241 -0.721651,-15.81686 -0.874525,-20.56051 -0.874525,-60.61356 0,-40.05305 0.152874,-44.79608 0.874525,-60.61473 0.667467,-14.624828 3.110378,-22.566216 5.16458,-27.852401 a 46.473812,46.474111 0 0 1 11.2213,-17.248717 46.474408,46.474707 0 0 1 17.247444,-11.22004 C 66.819772,31.012805 74.761702,28.569283 89.386436,27.902407 105.2036,27.180764 109.94815,27.027882 149.99962,27.027876 Z M 230.0698,51.931062 A 17.99958,17.999697 0 0 0 212.06994,69.929877 17.99958,17.999697 0 0 0 230.0698,87.929853 17.99958,17.999697 0 0 0 248.0685,69.929877 17.99958,17.999697 0 0 0 230.0698,51.931062 Z M 149.99962,72.97329 a 77.026658,77.027154 0 1 0 77.02678,77.0273 77.026658,77.027154 0 0 0 -77.02678,-77.0273 z m -2.07817,27.0709 a 49.9993,49.999623 0 0 1 52.07842,49.9564 A 49.999895,50.000218 0 0 1 149.99962,200 49.9993,49.999623 0 0 1 147.92145,100.04419 Z" />
</svg>
